PathFileType	4	(X/Y/Z)	paretic_post_fc0300a5.trc
DataRate	CameraRate	NumFrames	NumMarkers	Units	OrigDataRate	OrigDataStartFrame	OrigNumFrames
56.76	56.76	13	11	cm	56.76	379	433
Frame#	Time	NOSE			LEFT_SHOULDER			RIGHT_SHOULDER			LEFT_ELBOW			RIGHT_ELBOW			LEFT_WRIST			RIGHT_WRIST			LEFT_HIP			RIGHT_HIP			LEFT_INDEX			RIGHT_INDEX		
		X1	Y1	Z1	X2	Y2	Z2	X3	Y3	Z3	X4	Y4	Z4	X5	Y5	Z5	X6	Y6	Z6	X7	Y7	Z7	X8	Y8	Z8	X9	Y9	Z9	X10	Y10	Z10	X11	Y11	Z11
414	7.2936895161290325	6.566196	-63.396093	-32.800375	10.978549	-51.959277	8.526042	-23.471949	-58.969666	-7.018152	15.717858	-23.585663	9.233822	-34.188124	-20.089536	-17.924396	30.133640	-7.924989	0.536587	-19.105427	-4.577713	-32.239820	10.158362	-2.599824	12.435184	-9.818541	2.026341	-12.013288	31.737604	-5.663281	-3.953418	-3.632475	-10.249111	-41.858532
415	7.311307123655914	6.691263	-63.538801	-31.982945	11.106596	-51.964513	9.133867	-23.388164	-59.083248	-6.268715	16.093490	-23.579480	10.643721	-34.478975	-20.216536	-16.746681	31.128575	-7.765646	3.442780	-19.371969	-4.653815	-30.544511	10.164125	-2.590330	12.421331	-9.822994	2.018681	-12.000727	33.022554	-5.520949	-0.701103	-3.844381	-10.337703	-39.896472
416	7.328924731182796	6.692160	-63.528361	-32.049907	11.139760	-51.807222	9.085676	-23.378657	-59.077846	-6.341632	16.061692	-23.224196	10.600610	-34.877690	-20.257880	-16.896397	31.155126	-7.532931	3.137955	-20.290072	-4.873035	-30.654103	10.167003	-2.576245	12.398530	-9.825196	2.005914	-11.978838	33.121460	-5.377406	-1.070593	-4.874371	-10.572676	-40.014283
417	7.3465423387096775	6.700290	-63.662046	-32.020797	11.186991	-51.811806	9.084150	-23.371404	-59.126561	-6.188050	16.057730	-23.278726	10.537021	-35.438100	-20.421130	-17.058357	31.168978	-7.573174	2.972180	-20.657369	-5.385273	-30.887012	10.171649	-2.568015	12.382601	-9.829544	1.998329	-11.962639	33.128139	-5.388521	-1.278014	-5.173425	-11.102332	-40.254671
418	7.364159946236559	6.903948	-63.860967	-31.999213	11.388929	-51.767474	9.060980	-23.229825	-59.137559	-6.108780	16.207336	-22.997277	10.474834	-35.349220	-20.561712	-16.713644	31.343811	-7.484507	2.801130	-21.015754	-5.497424	-30.695384	10.174810	-2.544208	12.377540	-9.831814	1.975776	-11.958822	33.302838	-5.394905	-1.479796	-5.739313	-11.162477	-40.122787
419	7.381777553763441	7.006269	-63.859045	-31.303282	11.436135	-51.749536	9.768048	-23.089334	-59.146655	-5.430673	16.418458	-23.014533	11.242390	-35.540336	-20.606815	-16.518612	31.819317	-7.368918	3.679066	-21.269689	-5.807605	-30.647700	10.166217	-2.536504	12.377786	-9.820821	1.970214	-11.959152	33.869800	-5.161744	-0.632215	-5.960815	-11.483115	-40.004139
420	7.399395161290323	7.019699	-63.859360	-31.030978	11.424855	-51.718205	9.878137	-23.080630	-59.168558	-5.263212	16.386119	-22.949663	11.320745	-36.191765	-20.645088	-16.376166	31.907585	-7.310431	3.606601	-21.865608	-6.112434	-30.652161	10.163264	-2.524855	12.371312	-9.816785	1.961205	-11.953048	34.117260	-5.135032	-0.747866	-6.387631	-11.910189	-40.001290
421	7.417012768817204	7.029250	-63.856936	-30.985944	11.413368	-51.632418	9.826679	-23.073505	-59.165726	-5.191876	16.441915	-22.812348	11.249021	-36.462278	-20.634503	-16.296584	31.958191	-7.118892	3.483027	-22.235341	-6.224934	-30.621716	10.160115	-2.521492	12.359633	-9.812259	1.959412	-11.942055	34.111299	-4.998276	-0.879666	-6.853920	-12.124970	-39.957824
422	7.434630376344086	6.947869	-63.652747	-31.062704	11.332683	-51.501440	9.611478	-23.259600	-59.097334	-5.309544	16.419784	-22.714468	10.993139	-36.954692	-20.506382	-16.313974	31.913553	-6.974263	3.177666	-22.799082	-6.188193	-30.586589	10.161043	-2.520611	12.327336	-9.812544	1.959081	-11.909245	34.063689	-4.858573	-1.208374	-7.526566	-12.073725	-39.919646
423	7.452247983870968	7.260736	-63.658744	-29.983324	11.452283	-51.452321	10.279344	-23.233157	-59.193937	-4.499688	16.944122	-22.539211	11.401040	-36.876726	-20.524957	-15.497473	32.676017	-6.923470	3.338177	-22.815766	-6.158003	-30.398233	10.167184	-2.497316	12.314335	-9.817277	1.936326	-11.895644	34.740242	-4.872885	-1.101551	-7.635137	-12.049298	-39.784217
424	7.469865591397849	7.190232	-63.752418	-29.931087	11.347954	-51.461753	10.349168	-23.369268	-59.404188	-4.165272	16.882136	-22.520276	11.405425	-37.280896	-20.605668	-15.337287	32.594290	-6.943265	3.264795	-23.571636	-6.459497	-30.437477	10.167697	-2.486372	12.295882	-9.817587	1.927232	-11.876532	34.638844	-5.038356	-1.191821	-8.647854	-12.532573	-39.811539
425	7.487483198924731	7.111695	-63.829336	-30.054711	11.355470	-51.322359	10.311464	-23.457309	-59.403055	-4.087561	16.859855	-22.273399	11.163301	-37.726634	-20.746610	-14.706728	32.389628	-6.921039	2.562027	-23.935030	-6.438074	-29.458997	10.171366	-2.483490	12.268633	-9.819781	1.925525	-11.852198	34.076715	-5.047269	-2.054570	-8.921320	-12.471051	-38.917112
426	7.505100806451613	7.804408	-63.980161	-29.454578	12.297387	-51.337431	10.963207	-22.941133	-59.818098	-3.220096	18.116286	-22.284600	11.824088	-37.528628	-21.125549	-13.612411	33.366522	-6.965106	3.539987	-23.628639	-6.588667	-28.617652	10.177565	-2.437511	12.265998	-9.824248	1.881121	-11.850387	34.904113	-5.243207	-0.972601	-8.720697	-12.610420	-38.054995
